 ##     ## ##     ##  ######  ########    ###    ##    ##  ######   ##     ## 
 ###   ### ##     ## ##    ##    ##      ## ##   ###   ## ##    ##   ##   ##  
 #### #### ##     ## ##          ##     ##   ##  ####  ## ##          ## ##   
 ## ### ## ##     ##  ######     ##    ##     ## ## ## ## ##   ####    ###    
 ##     ## ##     ##       ##    ##    ######### ##  #### ##    ##    ## ##   
 ##     ## ##     ## ##    ##    ##    ##     ## ##   ### ##    ##   ##   ##  
 ##     ##  #######   ######     ##    ##     ## ##    ##  ######   ##     ##

 Video
 ID : 0
 Format : MPEG-4 Visual
 Format profile : Advanced Simple@L5
 Format settings, BVOP : Yes
 Format settings, QPel : No
 Format settings, GMC : No warppoints
 Format settings, Matrix : Default (H.263)
 Muxing mode : Packed bitstream
 Codec ID : XVID
 Codec ID/Hint : XviD
 Duration : 1h 22mn
 Bit rate : 1 062 Kbps
 Width : 624 pixels
 Height : 336 pixels
 Display aspect ratio : 1.857
 Frame rate : 29.970 fps
 Color space : YUV
 Chroma subsampling : 4:2:0
 Bit depth : 8 bits
 Scan type : Progressive
 Bits/(Pixel*Frame) : 0.169
 Stream size : 628 MiB (90%)
 Writing library : XviD 57

 Audio
 ID : 1
 Format : MPEG Audio
 Format version : Version 1
 Format profile : Layer 3
 Mode : Joint stereo
 Mode extension : MS Stereo
 Codec ID : 55
 Codec ID/Hint : MP3
 Duration : 1h 22mn
 Bit rate mode : Variable
 Bit rate : 102 Kbps
 Nominal bit rate : 112 Kbps
 Channel(s) : 2 channels
 Sampling rate : 48.0 KHz
 Stream size : 60.4 MiB (9%)
 Alignment : Aligned on interleaves
 Interleave, duration : 24 ms (0.72 video frame)
 Interleave, preload duration : 203 ms
 Writing library : LAME3.97 
 Encoding settings : -m j -V 4 -q 2 -lowpass 16 --abr 112


 IMDB  http://www.imdb.com/title/tt1535606


 After returning to civilian life as a Texas rancher, Captain Lance Deakin 
 fends off attacks from former members of his unit as he struggles to uncover 
 the truth of what he did as a soldier in Iraq. The military performed
 experiments on Lance and his men to turn them into super-soldiers and 
 brainwashed them to remember their top secret missions as the hyper-violent
 content of a video game called MINUTEMAN. Lance must uncover the truth in time
 to save the woman he loves.


 Screens:
   http://leetleech.org/images/82306612645956520120.jpg

 Shout out to noir and all my friends @ 1337x,org and extratorrent


 ##     ## ##     ##  ######  ########    ###    ##    ##  ######   ##     ## 
 ###   ### ##     ## ##    ##    ##      ## ##   ###   ## ##    ##   ##   ##  
 #### #### ##     ## ##          ##     ##   ##  ####  ## ##          ## ##   
 ## ### ## ##     ##  ######     ##    ##     ## ## ## ## ##   ####    ###    
 ##     ## ##     ##       ##    ##    ######### ##  #### ##    ##    ## ##   
 ##     ## ##     ## ##    ##    ##    ##     ## ##   ### ##    ##   ##   ##  
 ##     ##  #######   ######     ##    ##     ## ##    ##  ######   ##     ##
